HIERARCHY
ROOT pelvis
{
	OFFSET 0.000000 0.000000 0.000000
	CHANNELS 6 Xposition Yposition Zposition Zrotation Xrotation Yrotation
	JOINT lfemur
	{
		OFFSET 11.446000 0.000000 0.000000
		CHANNELS 3 Zrotation Xrotation Yrotation
		JOINT ltibia
		{
			OFFSET 0.000000 -42.030400 0.000000
			CHANNELS 3 Zrotation Xrotation Yrotation
			JOINT lfoot
			{
				OFFSET 0.000000 -39.930200 0.000000
				CHANNELS 3 Zrotation Xrotation Yrotation
				JOINT ltoes
				{
					OFFSET 0.000000 0.000000 11.775800
					CHANNELS 3 Zrotation Xrotation Yrotation
					End Site
					{
					    OFFSET 0.000000 0.000000 5.000000
					}
				}
			}
		}
	}
	JOINT rfemur
	{
		OFFSET -11.446000 0.000000 0.000000
		CHANNELS 3 Zrotation Xrotation Yrotation
		JOINT rtibia
		{
			OFFSET 0.000000 -42.030400 0.000000
			CHANNELS 3 Zrotation Xrotation Yrotation
			JOINT rfoot
			{
				OFFSET 0.000000 -39.930200 0.000000
				CHANNELS 3 Zrotation Xrotation Yrotation
				JOINT rtoes
				{
					OFFSET 0.000000 0.000000 11.775800
					CHANNELS 3 Zrotation Xrotation Yrotation
					End Site
					{
					    OFFSET 0.000000 0.000000 5.000000
					}
				}
			}
		}
	}
	JOINT thorax
	{
		OFFSET 0.000000 11.255600 -5.000000
		CHANNELS 3 Zrotation Xrotation Yrotation
		JOINT head
		{
			OFFSET 0.000000 43.799300 0.000000
			CHANNELS 3 Zrotation Xrotation Yrotation
			End Site
			{
			    OFFSET 0.000000 5.000000 0.000000
			}
		}
		JOINT lclavicle
		{
			OFFSET 0.000000 39.863000 0.000000
			CHANNELS 3 Zrotation Xrotation Yrotation
			JOINT lhumerus
			{
				OFFSET 17.380600 4.958300 0.000000
				CHANNELS 3 Zrotation Xrotation Yrotation
				JOINT lradius
				{
					OFFSET 0.000000 -27.561300 0.000000
					CHANNELS 3 Zrotation Xrotation Yrotation
					JOINT lhand
					{
						OFFSET 0.000000 -26.933000 0.000000
						CHANNELS 3 Zrotation Xrotation Yrotation
						End Site
						{
						    OFFSET 0.000000 -5.000000 0.000000
						}
					}
				}
			}
		}
		JOINT rclavicle
		{
			OFFSET 0.000000 39.863000 0.000000
			CHANNELS 3 Zrotation Xrotation Yrotation
			JOINT rhumerus
			{
				OFFSET -17.380600 4.958300 0.000000
				CHANNELS 3 Zrotation Xrotation Yrotation
				JOINT rradius
				{
					OFFSET 0.000000 -27.561300 0.000000
					CHANNELS 3 Zrotation Xrotation Yrotation
					JOINT rhand
					{
						OFFSET 0.000000 -26.933000 0.000000
						CHANNELS 3 Zrotation Xrotation Yrotation
						End Site
						{
						    OFFSET 0.000000 -5.000000 0.000000
						}
					}
				}
			}
		}
	}
}
MOTION
Frames: 18
Frame Time:	0.0333333
49.354300 42.722900 7.101600 9.933713 3.115925 -101.014987 4.991811 -44.613828 15.424472 -180.000037 41.135788 -180.000037 -0.000000 8.826259 -3.949375 -0.000000 -1.253454 -0.000000 118.768729 -81.506237 108.326897 -180.000037 62.550320 -180.000037 0.000000 -18.788161 -0.811251 0.000000 -29.530459 -0.000000 0.471206 39.586424 -1.193306 5.045106 19.779532 22.542460 -14.733351 0.000000 -2.444708 33.722550 -30.030014 6.172969 0.000002 -20.487025 -43.952355 13.493645 -5.435801 0.000000 8.766341 0.000000 16.808963 -34.369998 -26.197008 -1.294003 -0.000000 -26.151557 33.566107 1.910043 -4.096198 0.000000 
49.605600 42.857100 6.609600 10.689346 2.717193 -101.208629 5.036747 -45.073863 13.714784 180.000037 41.314780 -180.000037 -0.000000 8.120199 -6.925169 0.000000 -1.288190 -0.000000 121.988275 -80.699659 111.174069 -180.000037 63.006085 -180.000037 0.000000 -18.419503 -1.223220 -0.000000 -29.524001 0.000000 -0.579596 40.741994 -0.971577 5.837754 20.196418 22.791801 -14.699665 0.000000 -2.162434 32.678047 -31.013099 5.777020 -0.000002 -20.961242 -43.368589 14.421551 -5.350587 -0.000000 7.987795 0.000000 16.929658 -32.732482 -27.954840 -0.311534 0.000000 -26.113585 33.689474 2.118595 -4.164909 0.000000 
49.682800 43.014100 6.047300 11.358660 2.061713 -101.284448 4.798871 -45.119533 11.494803 -180.000037 41.770176 180.000037 -0.000000 7.052116 -10.795811 -0.000000 -1.341828 0.000000 124.407221 -79.954126 113.421672 180.000037 63.239282 -180.000037 -0.000000 -18.177162 -1.538391 0.000000 -29.519271 -0.000000 -2.082204 41.635367 -0.797936 5.803412 20.444101 22.980836 -14.898312 0.000000 -1.614491 32.275103 -32.215736 7.139294 0.000001 -20.186813 -44.564007 15.662353 -4.742823 0.000000 7.123764 0.000000 16.702030 -31.125946 -28.763643 1.731068 0.000001 -26.324928 33.177748 2.804266 -4.399227 0.000000 
49.750200 43.271400 5.402000 12.270191 1.672468 -101.214217 4.749637 -45.331079 9.205245 -180.000037 42.452908 180.000037 0.000000 6.201391 -13.710303 -0.000000 -1.380183 -0.000000 125.629633 -79.147593 114.102041 -180.000037 63.795218 -180.000037 0.000000 -18.295076 -2.477138 -0.000000 -29.515525 0.000000 -3.367388 42.296131 -0.878559 5.446054 20.356593 23.364651 -14.709594 -0.000000 -1.048067 32.209312 -33.334342 9.213766 0.000000 -19.022469 -43.987105 17.649281 -4.372737 0.000000 6.192971 0.000000 16.480060 -30.100211 -29.299476 3.905314 0.000001 -26.279452 31.854455 3.857402 -4.756485 0.000000 
49.756100 43.692300 4.718600 13.056384 1.682144 -100.733515 4.492881 -45.271282 6.893407 -180.000037 43.312843 -180.000037 -0.000000 5.235972 -15.089658 -0.000000 -1.416877 0.000000 126.148815 -78.895551 113.672309 180.000037 64.510489 180.000037 0.000000 -18.373453 -3.549240 -0.000000 -29.509876 0.000000 -4.237645 42.946361 -0.961412 5.106653 20.090895 23.924845 -14.505523 0.000000 -1.395751 32.596553 -33.519757 12.398253 -0.000000 -18.414287 -43.180341 20.665095 -2.842560 -0.000000 6.006112 -0.000000 15.864164 -29.925062 -28.982762 4.320557 0.000000 -25.925967 33.277761 3.761327 -4.724532 0.000000 
49.206200 44.597800 4.435100 12.382275 -0.509699 -101.512045 1.381132 -42.941459 6.313812 -180.000037 45.954364 -180.000037 -0.000000 4.330083 -14.418544 -0.000000 -1.427058 0.000000 116.711395 -78.681728 106.078271 -180.000037 65.113513 180.000037 0.000000 -18.549239 -3.870312 0.000000 -29.506423 -0.000000 -8.503078 44.606584 0.375026 4.339328 19.424996 24.539810 -14.412151 -0.000000 -1.667262 33.368478 -33.973303 15.569334 -0.000000 -17.527716 -42.864422 21.122688 -2.455143 0.000000 5.439199 -0.000000 15.175456 -30.261735 -28.702524 4.456158 0.000001 -25.214895 33.842069 2.889794 -4.428596 0.000000 
49.895500 45.484700 3.215000 14.914826 2.617943 -99.845143 3.664972 -46.001602 2.055719 -180.000037 45.721947 180.000037 -0.000000 3.974976 -15.778133 -0.000000 -1.469603 0.000000 120.998806 -78.363567 106.836979 180.000037 67.799335 -180.000037 -0.000000 -17.904568 -5.325958 -0.000000 -29.502776 -0.000000 -6.197523 43.052487 -1.692048 3.734294 19.588439 25.917414 -14.193420 0.000000 -1.010773 35.381585 -33.079101 17.048645 -0.000001 -17.156143 -42.198310 20.270685 -2.069062 -0.000000 7.369414 0.000000 15.978913 -30.629654 -26.025399 1.714548 0.000001 -24.751174 35.003355 3.442266 -4.614694 -0.000000 
50.043500 47.042400 2.652300 16.442246 2.845129 -99.505776 2.375257 -46.850234 -1.734205 -180.000037 48.016891 -180.000037 0.000000 3.166637 -17.507276 -0.000000 -1.544404 -0.000000 117.938786 -78.349274 103.215590 -180.000037 70.612076 180.000037 0.000000 -17.706010 -6.062040 0.000000 -29.501512 -0.000000 -6.726716 43.217542 -1.835815 2.779374 18.760867 26.210038 -14.354811 0.000000 -1.363106 36.909945 -33.576364 19.182460 0.000001 -17.142103 -40.649180 18.715190 -2.433256 0.000000 7.352857 -0.000000 15.838091 -31.759883 -24.566558 -0.765613 0.000001 -24.610173 35.378514 2.585479 -4.322048 -0.000000 
49.411200 49.303100 2.564900 15.761480 0.412225 -100.863436 -1.476610 -43.655138 -3.321442 -180.000037 53.023707 180.000037 -0.000000 2.286358 -17.902894 -0.000000 -1.582815 -0.000000 101.149180 -78.324281 88.895546 -180.000037 73.136563 180.000037 -0.000000 -17.207954 -5.060869 0.000000 -29.501905 -0.000000 -11.365816 44.777419 0.429899 1.212783 18.003647 26.430083 -15.007804 0.000000 -1.745197 38.100228 -33.579425 19.335402 0.000001 -17.999577 -40.486887 17.211462 -2.474047 -0.000000 7.037581 0.000000 15.543004 -32.938773 -23.123357 -3.268080 -0.000001 -24.155201 36.036714 3.146348 -4.511901 -0.000000 
50.325900 51.543800 1.773000 19.604956 2.997942 -98.979647 -0.375802 -47.709844 -8.593246 -180.000037 55.131518 180.000037 -0.000000 2.541366 -19.531097 -0.000000 -1.619410 -0.000000 105.879309 -79.303191 90.912162 180.000037 77.993197 -180.000037 0.000000 -15.894952 -5.113880 -0.000000 -29.501775 -0.000000 -7.617869 42.939446 -2.070996 0.416419 17.358837 26.303931 -14.975742 0.000000 -1.808054 39.359800 -32.981690 18.283675 0.000000 -18.939295 -41.038502 16.390521 -3.079969 -0.000000 7.962064 0.000000 15.913600 -34.148873 -21.123785 -5.512943 0.000000 -23.462731 37.693507 2.764922 -4.381557 0.000000 
50.418800 54.410500 1.515700 21.098221 2.847378 -98.798708 -1.402835 -47.434996 -11.173666 -180.000037 60.038108 180.000037 0.000000 2.452142 -20.683407 -0.000000 -1.657565 0.000000 95.029646 -79.963449 80.061322 -180.000037 82.832530 -180.000037 -0.000000 -14.472752 -4.372094 -0.000000 -29.502100 0.000000 -7.716465 42.525393 -2.256043 -0.777642 16.654310 25.481425 -14.704899 0.000000 -2.387740 39.465852 -31.545212 17.045511 0.000000 -19.201326 -42.473125 16.944686 -3.188535 -0.000000 8.312152 0.000000 15.576120 -35.326981 -19.905132 -6.255652 -0.000001 -22.638775 38.037022 2.710237 -4.361469 -0.000000 
50.497500 57.603100 1.288100 22.318254 3.013675 -98.227369 -2.375767 -46.841446 -14.080482 -180.000037 65.168360 -180.000037 -0.000000 2.319245 -21.145759 -0.000000 -1.713455 -0.000000 78.711750 -80.466960 63.466971 180.000037 88.359247 -180.000037 0.000000 -12.579938 -3.296031 0.000000 -29.504180 -0.000000 -6.980974 42.030782 -2.950976 -1.797949 16.645467 24.872256 -14.436518 -0.000000 -2.576693 39.276088 -30.067657 15.845677 0.000000 -18.711125 -43.321440 16.499580 -3.267713 -0.000000 8.663152 0.000000 15.832095 -35.988253 -18.236866 -8.756433 -0.000000 -22.205278 38.726626 3.498046 -4.625563 -0.000000 
50.693600 61.001400 1.280900 22.949297 2.698899 -97.556876 -3.709847 -46.663202 -15.208189 -180.000037 69.996785 -180.000037 0.000000 3.920459 -18.768691 0.000000 -1.728239 -0.000000 58.309855 -79.992480 43.411965 0.000000 85.584918 -0.000000 0.000000 -10.317649 -2.093830 -0.000000 -29.509473 -0.000000 -6.683168 41.479312 -3.530022 -2.138316 17.108783 23.841181 -14.368863 -0.000000 -2.249238 39.004133 -28.835011 14.382669 0.000002 -18.084018 -43.793880 13.407506 -3.835846 0.000000 9.341931 0.000000 16.420688 -36.776752 -15.973433 -10.609900 0.000002 -22.369551 38.771192 3.524177 -4.634233 -0.000000 
50.179900 64.571600 1.753300 21.317481 -0.620067 -98.878567 -6.652770 -43.680880 -12.117747 -180.000037 76.112880 -180.000037 0.000000 5.781158 -14.044976 -0.000000 -1.711766 -0.000000 37.156234 -76.444042 25.372131 -0.000000 79.911953 -0.000000 0.000000 -7.826232 0.023375 -0.000000 -29.509678 -0.000000 -11.066399 41.920870 -1.297374 -2.086376 18.127050 22.728492 -14.968456 0.000000 -2.237447 39.354089 -26.978731 11.868735 -0.000001 -18.138498 -44.084344 12.231166 -3.928376 -0.000000 9.975861 -0.000000 17.312274 -38.204649 -13.348244 -10.804896 0.000002 -23.022919 37.716198 3.196073 -4.525149 0.000000 
50.655500 67.926600 1.836100 21.066882 -1.031056 -98.249289 -7.346045 -44.059912 -10.688963 180.000037 79.861418 -180.000037 0.000000 5.429303 -9.725496 -0.000000 -1.683031 -0.000000 25.583236 -73.298303 14.044924 -0.000000 72.868093 -0.000000 -0.000000 -4.668613 1.085495 -0.000000 -29.514746 -0.000000 -11.184492 41.314604 -1.156907 -0.560329 19.504890 21.393751 -14.071999 0.000000 -2.119646 38.644957 -25.398315 9.464504 -0.000000 -18.284300 -44.887334 12.358380 -3.630803 0.000000 10.677978 -0.000000 18.014914 -38.961884 -11.396664 -11.594990 -0.000000 -23.303123 38.001874 2.742688 -4.371910 0.000000 
51.588300 70.671200 2.443000 23.733431 -2.215208 -96.060713 -11.592154 -48.336498 -12.804095 180.000037 82.928624 -180.000037 0.000000 3.783851 -5.235064 0.000000 -1.615587 -0.000000 15.853601 -74.023974 5.035503 -0.000000 67.010303 0.000000 0.000000 -1.863457 1.946588 -0.000000 -29.518376 -0.000000 -9.146500 38.754685 -2.079359 1.544840 20.819782 18.593609 -12.855869 -0.000000 -4.365405 37.517431 -25.010717 7.506337 -0.000001 -18.034944 -45.545973 13.390404 -4.089573 0.000000 9.553973 0.000000 16.780392 -39.408627 -11.562495 -12.866308 -0.000000 -23.434659 36.668512 2.945003 -4.439090 0.000000 
52.953200 73.738000 1.953000 22.854117 1.217095 -94.257491 -8.575614 -49.950092 -12.174304 -180.000037 85.759786 180.000037 0.000000 2.823672 -3.507338 -0.000000 -1.574282 0.000000 13.974856 -68.100464 0.622847 -0.000000 57.165577 -0.000000 -0.000000 2.579872 1.620539 0.000000 -29.524957 0.000000 -5.531298 38.152524 -1.778481 4.686037 22.594868 16.913512 -11.056096 -0.000000 -4.618421 36.139827 -24.201857 5.999357 0.000001 -18.094146 -47.768504 13.034165 -4.298763 0.000000 11.312895 0.000000 15.765291 -40.482772 -10.654629 -11.479947 0.000000 -24.046689 34.957536 2.858154 -4.410825 0.000000 
53.664200 76.206000 2.305600 21.703023 0.697822 -93.575623 -9.803937 -49.610494 -11.111765 0.000000 89.184333 0.000000 -0.000000 1.583336 -1.823552 -0.000000 -1.535939 -0.000000 10.430529 -63.487107 -2.277156 -0.000000 49.798667 -0.000000 0.000000 5.605596 1.813784 -0.000000 -29.528413 -0.000000 -5.764052 36.928463 -1.273788 6.118670 24.488804 15.870419 -11.123262 0.000000 -4.683797 36.797068 -23.261610 4.099599 0.000001 -18.713983 -47.741296 12.489349 -4.699575 -0.000000 12.179862 0.000000 16.083577 -40.891111 -9.290416 -10.977779 0.000001 -24.944320 33.687798 2.794017 -4.389719 -0.000000 
